<?xml version="1.0" encoding="UTF-8"?>
<svg version="1.1" viewBox="0.0 0.0 174.48818897637796 173.69028871391077" fill="none" stroke="none" stroke-linecap="square" stroke-miterlimit="10" xmlns:xlink="http://www.w3.org/1999/xlink" xmlns="http://www.w3.org/2000/svg"><clipPath id="p.0"><path d="m0 0l174.48819 0l0 173.69029l-174.48819 0l0 -173.69029z" clip-rule="nonzero"/></clipPath><g clip-path="url(#p.0)"><path fill="#000000" fill-opacity="0.0" d="m0 0l174.48819 0l0 173.69029l-174.48819 0z" fill-rule="evenodd"/><path fill="#ffff00" d="m-0.001312336 0l173.85826 0l0 173.85826l-173.85826 0z" fill-rule="evenodd"/><path stroke="#ff0000" stroke-width="1.0" stroke-linejoin="round" stroke-linecap="butt" d="m-0.001312336 0l173.85826 0l0 173.85826l-173.85826 0z" fill-rule="evenodd"/><path fill="#000000" d="m113.90108 143.40625q-0.125 0.796875 -1.53125 0.453125q-1.390625 -0.328125 -2.46875 -1.921875q-1.0625 -2.53125 -1.0625 -4.671875q0 -2.125 0.140625 -6.40625q0.796875 -4.65625 2.1875 -12.1875q1.40625 -7.53125 3.328125 -16.9375q1.9375 -9.40625 4.21875 -19.671875q1.59375 -5.328125 2.59375 -9.796875q1.0 -4.46875 1.53125 -7.265625q0.53125 -2.796875 0.53125 -2.796875q0 -0.40625 -0.734375 0.328125q-0.734375 0.734375 -1.40625 1.671875q-0.65625 0.9375 -0.53125 1.46875q0 0 -0.9375 1.34375q-0.921875 1.328125 -2.390625 3.59375q-1.328125 1.328125 -3.203125 5.328125q-1.859375 4.0 -4.125 7.46875q-2.140625 4.0 -4.546875 8.59375q-2.390625 4.59375 -4.25 7.671875q-1.203125 1.734375 -2.40625 4.0q-1.203125 2.265625 -1.46875 2.921875q-0.53125 1.46875 -1.875 3.546875q-1.328125 2.0625 -2.921875 4.0625q-0.796875 1.203125 -1.609375 2.46875q-0.796875 1.265625 -1.265625 2.140625q-0.453125 0.859375 -0.453125 0.859375q0 0.390625 -1.265625 2.390625q-1.265625 2.0 -3.078125 4.40625q-1.796875 2.390625 -3.390625 4.125q-4.671875 4.9375 -7.46875 5.8125q-2.796875 0.859375 -6.265625 -2.34375q-1.734375 -2.125 -2.53125 -4.859375q-0.796875 -2.734375 -0.671875 -6.796875q0.140625 -4.078125 0.9375 -10.203125q0.9375 -4.671875 1.734375 -9.40625q0.796875 -4.734375 1.53125 -8.921875q0.734375 -4.203125 1.328125 -7.140625q0.609375 -2.9375 1.0 -3.859375q0.265625 -2.671875 -0.140625 -2.9375q-0.390625 -0.265625 -1.59375 1.59375q-0.53125 0.9375 -2.796875 4.609375q-2.265625 3.65625 -5.265625 9.0q-3.0 5.328125 -5.9375 11.59375q-5.46875 10.140625 -9.0 16.734375q-3.53125 6.59375 -5.59375 10.46875q-2.0625 3.859375 -3.0 5.71875q-0.9375 1.875 -1.34375 2.53125q-0.390625 0.671875 -0.65625 0.953125q-1.203125 0 -2.46875 -1.0q-1.265625 -1.0 -2.59375 -2.34375q-0.40625 -0.9375 -0.34375 -1.875q0.078125 -0.921875 0.875 -2.71875q0.796875 -1.796875 2.390625 -5.53125q1.734375 -3.46875 3.203125 -6.0625q1.46875 -2.609375 2.265625 -3.140625q0.671875 -1.0625 1.203125 -2.125q0.53125 -1.078125 0.671875 -2.546875q0.65625 -0.796875 2.0625 -3.265625q1.40625 -2.46875 2.859375 -5.390625q1.078125 -1.734375 2.734375 -4.53125q1.671875 -2.8125 3.53125 -6.203125q1.875 -3.40625 3.34375 -6.46875q6.125 -10.53125 10.390625 -17.796875q4.265625 -7.265625 6.40625 -9.265625q0.671875 -0.671875 1.40625 -1.875q0.734375 -1.203125 0.734375 -2.125q0 -2.8125 1.125 -5.140625q1.140625 -2.328125 2.328125 -2.0625q1.34375 0 2.40625 0.265625q1.0625 0.265625 2.265625 1.734375q1.0625 1.59375 1.859375 3.203125q0.8125 1.59375 -0.125 6.390625q0 1.875 -0.40625 4.203125q-0.390625 2.328125 -0.734375 4.265625q-0.328125 1.9375 -0.453125 3.0q-1.734375 5.203125 -3.203125 11.671875q-1.46875 6.46875 -2.671875 13.0625q-1.203125 6.59375 -2.0 12.265625q-0.796875 5.671875 -1.0 9.34375q-0.203125 3.65625 0.203125 4.1875q0.9375 0.53125 1.59375 0.140625q0.671875 -0.40625 2.265625 -3.46875q0.9375 -1.609375 2.59375 -3.9375q1.671875 -2.328125 3.28125 -4.328125q1.0625 -1.875 3.328125 -5.609375q2.265625 -3.734375 5.796875 -9.59375q3.53125 -5.859375 8.53125 -14.328125q5.0 -8.46875 11.40625 -19.671875q3.0625 -4.671875 5.796875 -9.125q2.734375 -4.46875 4.46875 -5.8125q1.875 -1.734375 3.875 -0.859375q2.0 0.859375 3.53125 3.53125q1.53125 2.671875 1.65625 6.671875q0.140625 1.859375 -0.46875 6.0q-0.59375 4.125 -1.796875 9.390625q-1.203125 5.265625 -3.0625 10.875q-0.40625 2.265625 -1.28125 5.671875q-0.859375 3.390625 -1.921875 7.0q-1.0625 3.59375 -2.125 6.78125q-0.671875 4.40625 -1.546875 8.671875q-0.859375 4.265625 -0.59375 5.734375q-1.203125 2.140625 -1.609375 6.140625q-0.390625 4.0 -0.390625 8.265625q-0.53125 5.1875 -0.796875 7.3125q-0.265625 2.140625 -0.9375 2.015625q-1.734375 -0.53125 -1.734375 0.671875z" fill-rule="nonzero"/></g></svg>