<?xml version="1.0" encoding="UTF-8"?>
<svg version="1.1" viewBox="0.0 0.0 839.0 295.0" fill="none" stroke="none" stroke-linecap="square" stroke-miterlimit="10" xmlns:xlink="http://www.w3.org/1999/xlink" xmlns="http://www.w3.org/2000/svg"><clipPath id="p.0"><path d="m0 0l839.0 0l0 295.0l-839.0 0l0 -295.0z" clip-rule="nonzero"/></clipPath><g clip-path="url(#p.0)"><path fill="#ffff00" d="m0 0l839.0 0l0 295.0l-839.0 0z" fill-rule="evenodd"/><path fill="#cc0000" d="m16.408266 20.0l0 125.938354l16.06444 0l0 -107.21082l36.42419 107.21082l15.033569 0l36.596 -105.4068l0 105.4068l16.064445 0l0 -125.938354l-22.421501 0l-30.153038 87.62422c-3.0353546 8.876968 -5.2689133 15.606277 -6.7006836 20.187935c-1.2599487 -4.1234894 -3.2644272 -10.337364 -6.01342 -18.641624l-29.809422 -89.17053z" fill-rule="evenodd"/><path fill="#cc0000" d="m219.74802 100.15039l0 5.6698074c0 6.815216 -0.8304291 11.969582 -2.4912872 15.463097c-2.1762848 4.524391 -5.583893 8.094254 -10.222824 10.709625c-4.6389313 2.5962677 -9.936462 3.8944092 -15.892624 3.8944092c-6.0134277 0 -10.585541 -1.3744965 -13.716339 -4.1234894c-3.1117096 -2.748993 -4.667572 -6.1852417 -4.667572 -10.308731c0 -2.6917267 0.71588135 -5.1352844 2.1476593 -7.330658c1.4317627 -2.21447 3.4648743 -3.8944092 6.0993347 -5.039818c2.6344452 -1.1454163 7.1302032 -2.1762924 13.487259 -3.0926208c11.225067 -1.6035843 19.64386 -3.5507889 25.256393 -5.8416214zm-19.6725 -47.506073c-7.8460846 0 -14.747208 1.0786018 -20.70337 3.235798c-5.9561615 2.138111 -10.509186 5.202095 -13.659073 9.191952c-3.149887 3.9707718 -5.412079 9.191956 -6.7865753 15.663551l15.119461 2.0617447c1.6608582 -6.471596 4.2189484 -10.976891 7.674286 -13.515892c3.4744263 -2.5580978 8.848328 -3.837143 16.121704 -3.837143c7.7888336 0 13.659073 1.7467575 17.610764 5.2402725c2.920807 2.5771866 4.3812103 7.015663 4.3812103 13.315445c0 0.57270813 -0.028640747 1.9185715 -0.08590698 4.03759c-5.8988953 2.0617447 -15.090836 3.8371353 -27.575867 5.3261795c-6.12796 0.74451447 -10.709625 1.5176697 -13.74498 2.319458c-4.1234894 1.1454163 -7.836548 2.8349075 -11.139145 5.068466c-3.2835236 2.2335587 -5.9466248 5.2020874 -7.989273 8.905594c-2.0235748 3.6844177 -3.0353546 7.7601852 -3.0353546 12.227303c0 7.617012 2.6917267 13.878609 8.07518 18.784798c5.3834534 4.8871 13.086365 7.330658 23.108734 7.330658c6.070709 0 11.750061 -1.0022278 17.038055 -3.0067139c5.307083 -2.0044708 10.824158 -5.4407196 16.551239 -10.308731c0.4581604 4.2953033 1.4890442 8.046539 3.0926208 11.253708l16.150345 0c-1.9472046 -3.493515 -3.2548828 -7.1397705 -3.92305 -10.938721c-0.6490631 -3.8180542 -0.9736023 -12.914551 -0.9736023 -27.289505l0 -20.617462c0 -6.87249 -0.25772095 -11.625961 -0.7731476 -14.260414c-0.91633606 -4.238037 -2.5199127 -7.741089 -4.8107452 -10.509178c-2.2908325 -2.7871742 -5.8702545 -5.0970955 -10.738266 -6.92976c-4.8680115 -1.8326645 -11.196426 -2.7489967 -18.985245 -2.7489967z" fill-rule="evenodd"/><path fill="#cc0000" d="m292.8541 52.644318c-3.6080322 0 -6.9201965 1.0308762 -9.936462 3.0926208c-2.9971619 2.0617485 -6.2711487 6.328415 -9.82193 12.800011l0 -13.830883l-13.916779 0l0 91.232285l15.463104 0l0 -47.7638c0 -6.528862 0.8590393 -12.54229 2.577179 -18.040283c1.1454163 -3.608055 3.0639648 -6.4238663 5.755707 -8.447433c2.6917114 -2.0426483 5.727051 -3.06398 9.106049 -3.06398c3.7798462 0 7.559723 1.1167755 11.3396 3.3503342l5.326172 -14.346317c-5.3834534 -3.321701 -10.681 -4.9825554 -15.892639 -4.9825554zm43.29669 -29.809418l-15.377197 9.277859l0 22.593307l-11.3396 0l0 12.026852l11.3396 0l0 52.488632c0 9.277855 0.62997437 15.367638 1.8899231 18.269371c1.2599792 2.8826141 3.4362488 5.211624 6.5288696 6.98703c3.0926208 1.7753906 7.4451904 2.663086 13.057739 2.663086c3.4362488 0 7.330658 -0.45817566 11.683228 -1.3744965l-2.233551 -13.659073c-2.8062744 0.40089417 -5.0684814 0.6013336 -6.7865906 0.6013336c-2.2908325 0 -4.056671 -0.37225342 -5.2975464 -1.1167755c-1.2217712 -0.7445221 -2.1094666 -1.7467499 -2.663086 -3.0067139c-0.5345154 -1.2599564 -0.80178833 -4.0948563 -0.80178833 -8.5047l0 -53.347694l15.549011 0l0 -12.026852l-15.549011 0l0 -31.871166z" fill-rule="evenodd"/><path fill="#cc0000" d="m366.90518 20.0l0 17.782562l15.463074 0l0 -17.782562zm0 34.706066l0 91.232285l15.463074 0l0 -91.232285z" fill-rule="evenodd"/><path fill="#cc0000" d="m448.8596 52.644318c-12.65683 0 -22.335571 5.0111923 -29.036255 15.033569l0 -12.971821l-13.916779 0l0 91.232285l15.463074 0l0 -49.825546c0 -11.683228 2.3862915 -19.615227 7.158844 -23.79599c4.7916565 -4.1807632 10.48056 -6.2711487 17.06668 -6.2711487c4.1235046 0 7.7124634 0.9354248 10.766907 2.8062668c3.0735474 1.8517532 5.2116394 4.343033 6.4143066 7.473831c1.2026978 3.1117096 1.8040466 7.817459 1.8040466 14.117241l0 55.495346l15.463104 0l0 -56.096695c0 -7.1588364 -0.28637695 -12.170029 -0.8590698 -15.033569c-0.9163208 -4.4098434 -2.519928 -8.218346 -4.81073 -11.425507c-2.2908325 -3.2071648 -5.7461853 -5.793888 -10.366028 -7.7601852c-4.6007385 -1.9853859 -9.650116 -2.9780807 -15.148102 -2.9780807z" fill-rule="evenodd"/><path stroke="#000000" stroke-width="1.0" stroke-linejoin="round" stroke-linecap="butt" d="m16.408266 20.0l0 125.938354l16.06444 0l0 -107.21082l36.42419 107.21082l15.033569 0l36.596 -105.4068l0 105.4068l16.064445 0l0 -125.938354l-22.421501 0l-30.153038 87.62422c-3.0353546 8.876968 -5.2689133 15.606277 -6.7006836 20.187935c-1.2599487 -4.1234894 -3.2644272 -10.337364 -6.01342 -18.641624l-29.809422 -89.17053z" fill-rule="evenodd"/><path stroke="#000000" stroke-width="1.0" stroke-linejoin="round" stroke-linecap="butt" d="m219.74802 100.15039l0 5.6698074c0 6.815216 -0.8304291 11.969582 -2.4912872 15.463097c-2.1762848 4.524391 -5.583893 8.094254 -10.222824 10.709625c-4.6389313 2.5962677 -9.936462 3.8944092 -15.892624 3.8944092c-6.0134277 0 -10.585541 -1.3744965 -13.716339 -4.1234894c-3.1117096 -2.748993 -4.667572 -6.1852417 -4.667572 -10.308731c0 -2.6917267 0.71588135 -5.1352844 2.1476593 -7.330658c1.4317627 -2.21447 3.4648743 -3.8944092 6.0993347 -5.039818c2.6344452 -1.1454163 7.1302032 -2.1762924 13.487259 -3.0926208c11.225067 -1.6035843 19.64386 -3.5507889 25.256393 -5.8416214zm-19.6725 -47.506073c-7.8460846 0 -14.747208 1.0786018 -20.70337 3.235798c-5.9561615 2.138111 -10.509186 5.202095 -13.659073 9.191952c-3.149887 3.9707718 -5.412079 9.191956 -6.7865753 15.663551l15.119461 2.0617447c1.6608582 -6.471596 4.2189484 -10.976891 7.674286 -13.515892c3.4744263 -2.5580978 8.848328 -3.837143 16.121704 -3.837143c7.7888336 0 13.659073 1.7467575 17.610764 5.2402725c2.920807 2.5771866 4.3812103 7.015663 4.3812103 13.315445c0 0.57270813 -0.028640747 1.9185715 -0.08590698 4.03759c-5.8988953 2.0617447 -15.090836 3.8371353 -27.575867 5.3261795c-6.12796 0.74451447 -10.709625 1.5176697 -13.74498 2.319458c-4.1234894 1.1454163 -7.836548 2.8349075 -11.139145 5.068466c-3.2835236 2.2335587 -5.9466248 5.2020874 -7.989273 8.905594c-2.0235748 3.6844177 -3.0353546 7.7601852 -3.0353546 12.227303c0 7.617012 2.6917267 13.878609 8.07518 18.784798c5.3834534 4.8871 13.086365 7.330658 23.108734 7.330658c6.070709 0 11.750061 -1.0022278 17.038055 -3.0067139c5.307083 -2.0044708 10.824158 -5.4407196 16.551239 -10.308731c0.4581604 4.2953033 1.4890442 8.046539 3.0926208 11.253708l16.150345 0c-1.9472046 -3.493515 -3.2548828 -7.1397705 -3.92305 -10.938721c-0.6490631 -3.8180542 -0.9736023 -12.914551 -0.9736023 -27.289505l0 -20.617462c0 -6.87249 -0.25772095 -11.625961 -0.7731476 -14.260414c-0.91633606 -4.238037 -2.5199127 -7.741089 -4.8107452 -10.509178c-2.2908325 -2.7871742 -5.8702545 -5.0970955 -10.738266 -6.92976c-4.8680115 -1.8326645 -11.196426 -2.7489967 -18.985245 -2.7489967z" fill-rule="evenodd"/><path stroke="#000000" stroke-width="1.0" stroke-linejoin="round" stroke-linecap="butt" d="m292.8541 52.644318c-3.6080322 0 -6.9201965 1.0308762 -9.936462 3.0926208c-2.9971619 2.0617485 -6.2711487 6.328415 -9.82193 12.800011l0 -13.830883l-13.916779 0l0 91.232285l15.463104 0l0 -47.7638c0 -6.528862 0.8590393 -12.54229 2.577179 -18.040283c1.1454163 -3.608055 3.0639648 -6.4238663 5.755707 -8.447433c2.6917114 -2.0426483 5.727051 -3.06398 9.106049 -3.06398c3.7798462 0 7.559723 1.1167755 11.3396 3.3503342l5.326172 -14.346317c-5.3834534 -3.321701 -10.681 -4.9825554 -15.892639 -4.9825554zm43.29669 -29.809418l-15.377197 9.277859l0 22.593307l-11.3396 0l0 12.026852l11.3396 0l0 52.488632c0 9.277855 0.62997437 15.367638 1.8899231 18.269371c1.2599792 2.8826141 3.4362488 5.211624 6.5288696 6.98703c3.0926208 1.7753906 7.4451904 2.663086 13.057739 2.663086c3.4362488 0 7.330658 -0.45817566 11.683228 -1.3744965l-2.233551 -13.659073c-2.8062744 0.40089417 -5.0684814 0.6013336 -6.7865906 0.6013336c-2.2908325 0 -4.056671 -0.37225342 -5.2975464 -1.1167755c-1.2217712 -0.7445221 -2.1094666 -1.7467499 -2.663086 -3.0067139c-0.5345154 -1.2599564 -0.80178833 -4.0948563 -0.80178833 -8.5047l0 -53.347694l15.549011 0l0 -12.026852l-15.549011 0l0 -31.871166z" fill-rule="evenodd"/><path stroke="#000000" stroke-width="1.0" stroke-linejoin="round" stroke-linecap="butt" d="m366.90518 20.0l0 17.782562l15.463074 0l0 -17.782562zm0 34.706066l0 91.232285l15.463074 0l0 -91.232285z" fill-rule="evenodd"/><path stroke="#000000" stroke-width="1.0" stroke-linejoin="round" stroke-linecap="butt" d="m448.8596 52.644318c-12.65683 0 -22.335571 5.0111923 -29.036255 15.033569l0 -12.971821l-13.916779 0l0 91.232285l15.463074 0l0 -49.825546c0 -11.683228 2.3862915 -19.615227 7.158844 -23.79599c4.7916565 -4.1807632 10.48056 -6.2711487 17.06668 -6.2711487c4.1235046 0 7.7124634 0.9354248 10.766907 2.8062668c3.0735474 1.8517532 5.2116394 4.343033 6.4143066 7.473831c1.2026978 3.1117096 1.8040466 7.817459 1.8040466 14.117241l0 55.495346l15.463104 0l0 -56.096695c0 -7.1588364 -0.28637695 -12.170029 -0.8590698 -15.033569c-0.9163208 -4.4098434 -2.519928 -8.218346 -4.81073 -11.425507c-2.2908325 -3.2071648 -5.7461853 -5.793888 -10.366028 -7.7601852c-4.6007385 -1.9853859 -9.650116 -2.9780807 -15.148102 -2.9780807z" fill-rule="evenodd"/><path fill="#cc0000" d="m22.566296 155.08136l0 14.861755l41.49265 0l0 111.0766l16.665787 0l0 -111.0766l41.66446 0l0 -14.861755z" fill-rule="evenodd"/><path fill="#cc0000" d="m130.63617 189.78743l0 56.526215c0 6.586136 0.31498718 11.396866 0.9449768 14.432236c0.9163208 4.5243835 2.5008087 8.351959 4.7534637 11.482788c2.2717438 3.1116943 5.736618 5.6984253 10.394638 7.7601624c4.677109 2.0617676 9.707397 3.0926208 15.090836 3.0926208c12.198669 0 21.848785 -5.154358 28.950363 -15.463104l0 13.401367l13.830887 0l0 -91.232285l-15.463104 0l0 48.88057c0 7.7888184 -0.8495178 13.735428 -2.5485535 17.839844c-1.6799316 4.0852966 -4.553009 7.321106 -8.619232 9.707397c-4.066223 2.3671875 -8.418808 3.5507812 -13.057739 3.5507812c-4.6389313 0 -8.53334 -1.1549683 -11.683228 -3.4648743c-3.149887 -2.3290405 -5.2116394 -5.526642 -6.1852417 -9.592865c-0.62997437 -2.8062592 -0.94496155 -8.246979 -0.94496155 -16.322159l0 -50.598694z" fill-rule="evenodd"/><path fill="#cc0000" d="m263.2752 200.5257c7.044281 0 12.971802 2.920807 17.782562 8.762421c4.81073 5.841614 7.216095 15.004929 7.216095 27.48996c0 11.3396 -2.3671875 19.777496 -7.1015625 25.31366c-4.7153015 5.51709 -10.451904 8.275635 -17.20987 8.275635c-6.700653 0 -12.513641 -2.8921814 -17.43892 -8.676544c-4.925293 -5.7843323 -7.387924 -14.518112 -7.387924 -26.201355c0 -12.084122 2.3003693 -20.93245 6.901123 -26.544983c4.6198273 -5.6125336 10.365997 -8.418793 17.238495 -8.418793zm23.710083 -45.444336l0 45.186615c-2.691742 -3.7225952 -6.1852417 -6.738861 -10.48056 -9.048782c-4.295288 -2.3289948 -9.191956 -3.493515 -14.689941 -3.493515c-7.5024567 0 -14.289047 1.9758453 -20.359741 5.9275208c-6.070694 3.9516907 -10.623718 9.640579 -13.659073 17.06668c-3.0353394 7.407028 -4.5530243 15.663559 -4.5530243 24.769592c0 9.335129 1.6703949 17.601212 5.0112 24.798248c3.3598785 7.1779175 8.084717 12.771362 14.1744995 16.780304c6.1088867 4.008972 12.800003 6.0134277 20.073395 6.0134277c11.225067 0 19.729767 -4.5243835 25.5141 -13.573151l0 11.511414l14.346344 0l0 -125.938354z" fill-rule="evenodd"/><path fill="#cc0000" d="m363.69943 200.5257c7.6170044 0 13.983612 2.911255 19.099792 8.73378c5.1352844 5.8034363 7.7029114 14.346329 7.7029114 25.628662c0 11.969574 -2.5485535 20.875183 -7.64563 26.716782c-5.097107 5.841614 -11.482788 8.762451 -19.157074 8.762451c-7.731537 0 -14.145874 -2.9017334 -19.24295 -8.70517c-5.097107 -5.822525 -7.6456604 -14.575394 -7.6456604 -26.258636c0 -11.683228 2.5485535 -20.417007 7.6456604 -26.201355c5.0970764 -5.7843475 11.511414 -8.676514 19.24295 -8.676514zm0 -12.800018c-11.282318 0 -20.846558 3.3789825 -28.692627 10.136932c-9.392426 8.132431 -14.088623 20.646088 -14.088623 37.540955c0 15.405838 3.9325867 27.203613 11.797791 35.39331c7.884247 8.189728 18.212097 12.284576 30.98346 12.284576c7.9606323 0 15.300842 -1.8612976 22.0206 -5.583893c6.738861 -3.7225952 11.8645935 -8.943787 15.377197 -15.663544c3.5317078 -6.738861 5.2975464 -15.978531 5.2975464 -27.71904c0 -14.489487 -3.9803162 -25.838638 -11.9409485 -34.047455c-7.9606323 -8.22789 -18.212097 -12.341843 -30.754395 -12.341843z" fill-rule="evenodd"/><path fill="#cc0000" d="m458.02432 187.72568c-3.6080322 0 -6.9201965 1.0308838 -9.936462 3.0926208c-2.9971619 2.0617523 -6.2711487 6.328415 -9.82193 12.800018l0 -13.830887l-13.916779 0l0 91.232285l15.463104 0l0 -47.763794c0 -6.5288696 0.8590393 -12.542297 2.577179 -18.040283c1.1454163 -3.6080627 3.0639648 -6.4238586 5.755707 -8.447433c2.6917114 -2.0426483 5.7270813 -3.06398 9.106049 -3.06398c3.7798462 0 7.559723 1.1167755 11.3396 3.3503265l5.326172 -14.346313c-5.3834534 -3.321701 -10.681 -4.982559 -15.892639 -4.982559z" fill-rule="evenodd"/><path stroke="#000000" stroke-width="1.0" stroke-linejoin="round" stroke-linecap="butt" d="m22.566296 155.08136l0 14.861755l41.49265 0l0 111.0766l16.665787 0l0 -111.0766l41.66446 0l0 -14.861755z" fill-rule="evenodd"/><path stroke="#000000" stroke-width="1.0" stroke-linejoin="round" stroke-linecap="butt" d="m130.63617 189.78743l0 56.526215c0 6.586136 0.31498718 11.396866 0.9449768 14.432236c0.9163208 4.5243835 2.5008087 8.351959 4.7534637 11.482788c2.2717438 3.1116943 5.736618 5.6984253 10.394638 7.7601624c4.677109 2.0617676 9.707397 3.0926208 15.090836 3.0926208c12.198669 0 21.848785 -5.154358 28.950363 -15.463104l0 13.401367l13.830887 0l0 -91.232285l-15.463104 0l0 48.88057c0 7.7888184 -0.8495178 13.735428 -2.5485535 17.839844c-1.6799316 4.0852966 -4.553009 7.321106 -8.619232 9.707397c-4.066223 2.3671875 -8.418808 3.5507812 -13.057739 3.5507812c-4.6389313 0 -8.53334 -1.1549683 -11.683228 -3.4648743c-3.149887 -2.3290405 -5.2116394 -5.526642 -6.1852417 -9.592865c-0.62997437 -2.8062592 -0.94496155 -8.246979 -0.94496155 -16.322159l0 -50.598694z" fill-rule="evenodd"/><path stroke="#000000" stroke-width="1.0" stroke-linejoin="round" stroke-linecap="butt" d="m263.2752 200.5257c7.044281 0 12.971802 2.920807 17.782562 8.762421c4.81073 5.841614 7.216095 15.004929 7.216095 27.48996c0 11.3396 -2.3671875 19.777496 -7.1015625 25.31366c-4.7153015 5.51709 -10.451904 8.275635 -17.20987 8.275635c-6.700653 0 -12.513641 -2.8921814 -17.43892 -8.676544c-4.925293 -5.7843323 -7.387924 -14.518112 -7.387924 -26.201355c0 -12.084122 2.3003693 -20.93245 6.901123 -26.544983c4.6198273 -5.6125336 10.365997 -8.418793 17.238495 -8.418793zm23.710083 -45.444336l0 45.186615c-2.691742 -3.7225952 -6.1852417 -6.738861 -10.48056 -9.048782c-4.295288 -2.3289948 -9.191956 -3.493515 -14.689941 -3.493515c-7.5024567 0 -14.289047 1.9758453 -20.359741 5.9275208c-6.070694 3.9516907 -10.623718 9.640579 -13.659073 17.06668c-3.0353394 7.407028 -4.5530243 15.663559 -4.5530243 24.769592c0 9.335129 1.6703949 17.601212 5.0112 24.798248c3.3598785 7.1779175 8.084717 12.771362 14.1744995 16.780304c6.1088867 4.008972 12.800003 6.0134277 20.073395 6.0134277c11.225067 0 19.729767 -4.5243835 25.5141 -13.573151l0 11.511414l14.346344 0l0 -125.938354z" fill-rule="evenodd"/><path stroke="#000000" stroke-width="1.0" stroke-linejoin="round" stroke-linecap="butt" d="m363.69943 200.5257c7.6170044 0 13.983612 2.911255 19.099792 8.73378c5.1352844 5.8034363 7.7029114 14.346329 7.7029114 25.628662c0 11.969574 -2.5485535 20.875183 -7.64563 26.716782c-5.097107 5.841614 -11.482788 8.762451 -19.157074 8.762451c-7.731537 0 -14.145874 -2.9017334 -19.24295 -8.70517c-5.097107 -5.822525 -7.6456604 -14.575394 -7.6456604 -26.258636c0 -11.683228 2.5485535 -20.417007 7.6456604 -26.201355c5.0970764 -5.7843475 11.511414 -8.676514 19.24295 -8.676514zm0 -12.800018c-11.282318 0 -20.846558 3.3789825 -28.692627 10.136932c-9.392426 8.132431 -14.088623 20.646088 -14.088623 37.540955c0 15.405838 3.9325867 27.203613 11.797791 35.39331c7.884247 8.189728 18.212097 12.284576 30.98346 12.284576c7.9606323 0 15.300842 -1.8612976 22.0206 -5.583893c6.738861 -3.7225952 11.8645935 -8.943787 15.377197 -15.663544c3.5317078 -6.738861 5.2975464 -15.978531 5.2975464 -27.71904c0 -14.489487 -3.9803162 -25.838638 -11.9409485 -34.047455c-7.9606323 -8.22789 -18.212097 -12.341843 -30.754395 -12.341843z" fill-rule="evenodd"/><path stroke="#000000" stroke-width="1.0" stroke-linejoin="round" stroke-linecap="butt" d="m458.02432 187.72568c-3.6080322 0 -6.9201965 1.0308838 -9.936462 3.0926208c-2.9971619 2.0617523 -6.2711487 6.328415 -9.82193 12.800018l0 -13.830887l-13.916779 0l0 91.232285l15.463104 0l0 -47.763794c0 -6.5288696 0.8590393 -12.542297 2.577179 -18.040283c1.1454163 -3.6080627 3.0639648 -6.4238586 5.755707 -8.447433c2.6917114 -2.0426483 5.7270813 -3.06398 9.106049 -3.06398c3.7798462 0 7.559723 1.1167755 11.3396 3.3503265l5.326172 -14.346313c-5.3834534 -3.321701 -10.681 -4.982559 -15.892639 -4.982559z" fill-rule="evenodd"/><path fill="#000000" d="m496.0 60.952755l321.25983 0l0 189.00787l-321.25983 0z" fill-rule="evenodd"/><path stroke="#000000" stroke-width="1.0" stroke-linejoin="round" stroke-linecap="butt" d="m496.0 60.952755l321.25983 0l0 189.00787l-321.25983 0z" fill-rule="evenodd"/><path fill="#cfe2f3" d="m585.2441 152.0l0 0c0 -38.285942 32.12976 -69.32284 71.763794 -69.32284l0 0c19.032959 0 37.286316 7.3036346 50.74463 20.304192c13.458374 13.000549 21.019165 30.633087 21.019165 49.018646l0 0c0 38.28595 -32.12976 69.32283 -71.763794 69.32283l0 0c-39.634033 0 -71.763794 -31.03688 -71.763794 -69.32283z" fill-rule="evenodd"/><path stroke="#000000" stroke-width="1.0" stroke-linejoin="round" stroke-linecap="butt" d="m585.2441 152.0l0 0c0 -38.285942 32.12976 -69.32284 71.763794 -69.32284l0 0c19.032959 0 37.286316 7.3036346 50.74463 20.304192c13.458374 13.000549 21.019165 30.633087 21.019165 49.018646l0 0c0 38.28595 -32.12976 69.32283 -71.763794 69.32283l0 0c-39.634033 0 -71.763794 -31.03688 -71.763794 -69.32283z" fill-rule="evenodd"/><path fill="#000000" d="m612.28345 152.0l0 0c0 -24.86586 20.023804 -45.02362 44.724426 -45.02362l0 0c11.861633 0 23.237488 4.7435455 31.624939 13.187111c8.387451 8.443565 13.099487 19.8955 13.099487 31.83651l0 0c0 24.86586 -20.023804 45.02362 -44.724426 45.02362l0 0c-24.700623 0 -44.724426 -20.15776 -44.724426 -45.02362z" fill-rule="evenodd"/><path stroke="#000000" stroke-width="1.0" stroke-linejoin="round" stroke-linecap="butt" d="m612.28345 152.0l0 0c0 -24.86586 20.023804 -45.02362 44.724426 -45.02362l0 0c11.861633 0 23.237488 4.7435455 31.624939 13.187111c8.387451 8.443565 13.099487 19.8955 13.099487 31.83651l0 0c0 24.86586 -20.023804 45.02362 -44.724426 45.02362l0 0c-24.700623 0 -44.724426 -20.15776 -44.724426 -45.02362z" fill-rule="evenodd"/><path fill="#ffffff" d="m724.51184 71.04199l82.48816 0l0 20.0l-82.48816 0z" fill-rule="evenodd"/><path stroke="#000000" stroke-width="1.0" stroke-linejoin="round" stroke-linecap="butt" d="m724.51184 71.04199l82.48816 0l0 20.0l-82.48816 0z" fill-rule="evenodd"/></g></svg>